<svg id="레이어_1" data-name="레이어 1" xmlns="http://www.w3.org/2000/svg" xmlns:xlink="http://www.w3.org/1999/xlink" viewBox="0 0 154.41 43.5"><defs><style>.cls-1{fill:none;}.cls-2{clip-path:url(#clip-path);}.cls-3{fill:url(#무제_그라디언트);}.cls-4{clip-path:url(#clip-path-2);}.cls-5{fill:url(#무제_그라디언트_2);}.cls-6{clip-path:url(#clip-path-3);}.cls-7{fill:url(#무제_그라디언트_3);}.cls-8{fill:#f5a200;}.cls-9{fill:#fff;}.cls-10{fill:#999;}</style><clipPath id="clip-path" transform="translate(-6.23 -322.12)"><path class="cls-1" d="M22.3,336.43l-2,2.92-1.63-.83c-5.28,9.9-.83,14.91.33,16a6.65,6.65,0,0,0,3.23,1.45c-5.48-6.86,4.86-13.11,4.86-13.11l-1.84-.94L27.19,339a.52.52,0,0,0-.2-.76L26.5,338a.66.66,0,0,0-.85.18l-2,2.86-1.83-.93,2-2.87a.52.52,0,0,0-.2-.76l-.48-.27a.66.66,0,0,0-.32-.08.63.63,0,0,0-.53.27"/></clipPath><linearGradient id="무제_그라디언트" x1="2.69" y1="793.07" x2="3.69" y2="793.07" gradientTransform="matrix(-19.01, 0, 0, 19.01, 81.04, -14727.62)" gradientUnits="userSpaceOnUse"><stop offset="0" stop-color="#0097e0"/><stop offset="1" stop-color="#0075c2"/></linearGradient><clipPath id="clip-path-2" transform="translate(-6.23 -322.12)"><path class="cls-1" d="M23.24,356.86c-5.25-.61-8.64-4.39-8-9.72a8.45,8.45,0,0,1,.15-.87,19,19,0,0,0-2,6.46,15,15,0,0,0-.1,1.61v.14c0,7,5.47,11.11,13.18,11.15h.2a25.25,25.25,0,0,0,4.6-.46c10.85-2.07,19.69-10.6,21-20.09a20.17,20.17,0,0,0-.48-9c-9.63,23.12-24.58,23.25-28.51,20.82"/></clipPath><linearGradient id="무제_그라디언트_2" x1="-0.78" y1="792.62" x2="0.22" y2="792.62" gradientTransform="matrix(39.27, 0, 0, -39.27, 37.7, 31157.11)" gradientUnits="userSpaceOnUse"><stop offset="0" stop-color="#00b9ef"/><stop offset="1" stop-color="#0096da"/></linearGradient><clipPath id="clip-path-3" transform="translate(-6.23 -322.12)"><path class="cls-1" d="M38.52,327.79a.88.88,0,1,0,.87-.78.83.83,0,0,0-.87.78m6.07,7.1a.7.7,0,1,1,.7.63.66.66,0,0,1-.7-.62m-2.42-6.36a1.85,1.85,0,0,1,1.11-.36,1.57,1.57,0,1,1,0,3.13h-.19a23.56,23.56,0,0,1-.15,10.57c-1.55,6.61-7.59,13.35-15.25,14.81a14.67,14.67,0,0,1-4.45.19c2.49,1.54,9.41,2,16.59-3.66,8-8.53,9.15-16.68,9.27-19.8a3.12,3.12,0,0,1-.44,0,2.65,2.65,0,0,1-2.78-2.49,2.37,2.37,0,0,1,.86-1.8,15.2,15.2,0,0,0-5.72-2.7,14.58,14.58,0,0,1,1.13,2.1m-11.56-5a1.51,1.51,0,1,0,1.5-1.34,1.43,1.43,0,0,0-1.5,1.34m6.94.32a1.93,1.93,0,1,0,1.92-1.72,1.83,1.83,0,0,0-1.92,1.72"/></clipPath><linearGradient id="무제_그라디언트_3" x1="-1.08" y1="792.19" x2="-0.08" y2="792.19" gradientTransform="matrix(28.51, 0, 0, -28.51, 47.7, 22605.89)" gradientUnits="userSpaceOnUse"><stop offset="0" stop-color="#abcd03"/><stop offset="1" stop-color="#c3d82e"/></linearGradient></defs><title>벡터고급개체_466ffbd7-8e87-437e-95b9-b4943562a927</title><g class="cls-2"><rect class="cls-3" x="8.55" y="335.72" width="23.66" height="20.63" transform="translate(-311.84 -93.95) rotate(-66.75)"/></g><g class="cls-4"><rect class="cls-5" x="7.01" y="13.91" width="39.49" height="29.59"/></g><g class="cls-6"><rect class="cls-7" x="17" width="25.86" height="36.78"/></g><path class="cls-8" d="M51.75,336a13,13,0,0,0-1.46-3.09,2.94,2.94,0,0,1-1.19.45c-.12,3.12-1.26,11.27-9.27,19.8,4.15-3.3,8.4-8.69,11.93-17.16" transform="translate(-6.23 -322.12)"/><path class="cls-9" d="M60.33,352.93a11.27,11.27,0,0,1-1.15-2.12,6.79,6.79,0,0,1-.47-2.61,7.25,7.25,0,0,1,.43-2.45,9.31,9.31,0,0,1,1.2-2.28h1a9.62,9.62,0,0,0-1,2.27A8.44,8.44,0,0,0,60,348.2a8.82,8.82,0,0,0,.34,2.46,8.52,8.52,0,0,0,1,2.27Z" transform="translate(-6.23 -322.12)"/><path class="cls-9" d="M69.61,348.16v.78H66v2.95H64.49v-2.95H60.87v-.78Zm-7.82-4.68H68.7v.79H66v.05A2,2,0,0,0,67.09,346a4.13,4.13,0,0,0,2.25.71l-.72.6a5.19,5.19,0,0,1-2-.44,2.63,2.63,0,0,1-1.37-1,2.53,2.53,0,0,1-1.36,1,5.26,5.26,0,0,1-2,.43l-.72-.6A4.12,4.12,0,0,0,63.4,346a2,2,0,0,0,1.08-1.64v-.05H61.79Z" transform="translate(-6.23 -322.12)"/><path class="cls-9" d="M70.38,343.47a11.51,11.51,0,0,1,1.15,2.13,6.77,6.77,0,0,1,.47,2.61,7.25,7.25,0,0,1-.43,2.45,9.1,9.1,0,0,1-1.2,2.27H69.33a9.64,9.64,0,0,0,1-2.27,8.39,8.39,0,0,0,.36-2.45,8.88,8.88,0,0,0-.34-2.46,8.49,8.49,0,0,0-1.05-2.28Z" transform="translate(-6.23 -322.12)"/><path class="cls-9" d="M79.09,351.89H77.66v-3.42L77,349a2.42,2.42,0,0,1-1.26-.61,2.06,2.06,0,0,1-.74-1.06,2,2,0,0,1-.73,1.06A2.45,2.45,0,0,1,73,349l-.7-.53a2.28,2.28,0,0,0,1.4-1.06,3.72,3.72,0,0,0,.55-2.05v-.89H72.9v-.78H77v.78H75.73v.89a3.67,3.67,0,0,0,.55,2,2.34,2.34,0,0,0,1.38,1.07v-2.2H76.41v-.79h1.25v-2.07h1.43Zm2,0H79.69v-8.5h1.43Z" transform="translate(-6.23 -322.12)"/><path class="cls-9" d="M90.36,348.16v.78h-3.6v2.95H85.23v-2.95H81.62v-.78Zm-7.82-4.68h6.91v.79H86.76v.05A2,2,0,0,0,87.84,346a4.13,4.13,0,0,0,2.25.71l-.72.6a5.18,5.18,0,0,1-2-.44,2.63,2.63,0,0,1-1.37-1,2.53,2.53,0,0,1-1.36,1,5.26,5.26,0,0,1-2,.43l-.72-.6a4.12,4.12,0,0,0,2.25-.71,2,2,0,0,0,1.08-1.64v-.05H82.53Z" transform="translate(-6.23 -322.12)"/><path class="cls-9" d="M90.82,343.67h5v.78H94.08v.5a2.69,2.69,0,0,0,.72,1.93,2.89,2.89,0,0,0,1.64.91l-.74.59a3.09,3.09,0,0,1-1.45-.53,2.15,2.15,0,0,1-.93-1,2.06,2.06,0,0,1-.93,1,3.25,3.25,0,0,1-1.46.53l-.75-.59a2.85,2.85,0,0,0,1.65-.92,2.72,2.72,0,0,0,.71-1.92v-.5H90.82Zm3,7.43h5v.79H93.36a1.14,1.14,0,0,1-.75-.25.83.83,0,0,1-.3-.68V349h1.52Zm4.71-7.71v6.28H97v-3.51H95.23v-.79H97v-2Z" transform="translate(-6.23 -322.12)"/><path class="cls-9" d="M99.72,343.67h4.65v.85a4,4,0,0,1-1.4,3.32,5,5,0,0,1-2.95,1.22l-.84-.55a4.63,4.63,0,0,0,2.55-1.12,3.54,3.54,0,0,0,1-2.77v-.18h-3Zm7.57,8.22h-1.52v-8.5h1.52Z" transform="translate(-6.23 -322.12)"/><path class="cls-9" d="M108.23,344.46v-.79h5.08v.79h-1.76v.83a3.13,3.13,0,0,0,.72,2.07,2.76,2.76,0,0,0,1.64,1l-.75.59a2.87,2.87,0,0,1-1.47-.57,2.33,2.33,0,0,1-.93-1.1,2.1,2.1,0,0,1-.9,1.09,3,3,0,0,1-1.47.58l-.76-.59a2.73,2.73,0,0,0,1.65-1,3.15,3.15,0,0,0,.71-2.07v-.83Zm6-1.07h1.51v2.12h1.52v.79h-1.52v5.59h-1.51Z" transform="translate(-6.23 -322.12)"/><path class="cls-9" d="M125.53,348.13h-8.64v-.79h3.56v-.85H119a1.11,1.11,0,0,1-.76-.25.83.83,0,0,1-.29-.66v-2.12h6.54v.79h-5v1.46h5.11v.79H122v.85h3.56ZM123,349a1.57,1.57,0,0,1,0,2.64,2.83,2.83,0,0,1-1.75.54,2.86,2.86,0,0,1-1.76-.54,1.56,1.56,0,0,1,0-2.64,2.87,2.87,0,0,1,1.76-.54A2.84,2.84,0,0,1,123,349m-2.41.56a1.16,1.16,0,0,0,0,1.51.84.84,0,0,0,1.33,0,1.16,1.16,0,0,0,0-1.51.83.83,0,0,0-1.33,0" transform="translate(-6.23 -322.12)"/><path class="cls-9" d="M129.15,343.29v1h1.77v.79h-1.76v.27a3.15,3.15,0,0,0,.72,2.08,2.69,2.69,0,0,0,1.64,1l-.74.61a2.88,2.88,0,0,1-1.47-.57,2.32,2.32,0,0,1-.93-1.11,2.09,2.09,0,0,1-.9,1.1,3,3,0,0,1-1.47.58l-.76-.61a2.68,2.68,0,0,0,1.65-1,3.17,3.17,0,0,0,.71-2.08v-.27h-1.77v-.79h1.78v-1Zm4.17,2.22h1.52v.79h-1.52v5.58h-1.52v-8.5h1.52Z" transform="translate(-6.23 -322.12)"/><path class="cls-9" d="M138,343.58v1.63a3.15,3.15,0,0,0,.72,2.08,2.75,2.75,0,0,0,1.64,1l-.73.6a2.85,2.85,0,0,1-1.47-.57,2.32,2.32,0,0,1-.92-1.11,2.17,2.17,0,0,1-.9,1.1,3,3,0,0,1-1.48.58l-.74-.6a2.72,2.72,0,0,0,1.65-1,3.17,3.17,0,0,0,.71-2.08v-1.63Zm1.06,1.66H141v-1.85h1.52v8.5H141V346h-1.88Z" transform="translate(-6.23 -322.12)"/><path class="cls-9" d="M145.27,343.67v1.68H147v-1.68h1.52v5.17h-3.7a1.13,1.13,0,0,1-.77-.25.83.83,0,0,1-.29-.66v-4.26Zm1.71,2.46h-1.72v1.92H147Zm4.34,5.76h-1.52v-8.5h1.52Z" transform="translate(-6.23 -322.12)"/><path class="cls-9" d="M160.64,350.63h-8.43v-.79h8.43Zm-3.45-7.2v1.14a2.48,2.48,0,0,0,1.12,2.07,4,4,0,0,0,2.21.86l-.68.6a4.86,4.86,0,0,1-2-.51,2.53,2.53,0,0,1-1.37-1.19,2.44,2.44,0,0,1-1.36,1.2,4.91,4.91,0,0,1-2.06.5l-.68-.6a4,4,0,0,0,2.21-.86,2.48,2.48,0,0,0,1.12-2.07v-1.14Z" transform="translate(-6.23 -322.12)"/><path class="cls-10" d="M73.7,355a1.46,1.46,0,0,1-.16.69q-.17.31-.79.31a.78.78,0,0,1-.66-.27,1.07,1.07,0,0,1-.2-.66v-.15h.51v.15a.73.73,0,0,0,.08.38.44.44,0,0,0,.64,0,.88.88,0,0,0,.08-.42v-2h.51Z" transform="translate(-6.23 -322.12)"/><path class="cls-10" d="M74.78,355a.71.71,0,0,0,.14.43.49.49,0,0,0,.42.19.55.55,0,0,0,.33-.09.51.51,0,0,0,.18-.26h.44a.84.84,0,0,1-.34.53,1,1,0,0,1-.61.18,1,1,0,0,1-.76-.31,1.27,1.27,0,0,1,0-1.57,1,1,0,0,1,1.51,0,1.15,1.15,0,0,1,.22.85Zm1.08-.3a.65.65,0,0,0-.15-.39.46.46,0,0,0-.37-.17.51.51,0,0,0-.39.16.58.58,0,0,0-.16.39Z" transform="translate(-6.23 -322.12)"/><path class="cls-10" d="M78.46,355a1.46,1.46,0,0,1-.16.69q-.16.31-.79.31a.78.78,0,0,1-.66-.27,1.07,1.07,0,0,1-.2-.66v-.15h.51v.15a.74.74,0,0,0,.08.38.44.44,0,0,0,.64,0A.88.88,0,0,0,78,355v-2h.51Z" transform="translate(-6.23 -322.12)"/><path class="cls-10" d="M81,355.91h-.45v-.29h0a.64.64,0,0,1-.25.25.7.7,0,0,1-.34.1.77.77,0,0,1-.6-.21.89.89,0,0,1-.19-.62v-1.33h.46v1.28a.56.56,0,0,0,.11.39.39.39,0,0,0,.29.11.45.45,0,0,0,.4-.16.7.7,0,0,0,.11-.41v-1.22H81Z" transform="translate(-6.23 -322.12)"/><polygon class="cls-10" points="76.78 30.9 78.86 30.9 78.86 31.34 77.29 31.34 77.29 32.09 78.75 32.09 78.75 32.51 77.29 32.51 77.29 33.35 78.89 33.35 78.89 33.79 76.78 33.79 76.78 30.9"/><rect class="cls-10" x="79.44" y="30.9" width="0.46" height="2.89"/><path class="cls-10" d="M87.16,355a.71.71,0,0,0,.14.43.49.49,0,0,0,.42.19.55.55,0,0,0,.33-.09.52.52,0,0,0,.18-.26h.44a.84.84,0,0,1-.34.53,1,1,0,0,1-.61.18,1,1,0,0,1-.76-.31,1.27,1.27,0,0,1,0-1.57.91.91,0,0,1,.74-.33.9.9,0,0,1,.77.38,1.15,1.15,0,0,1,.22.85Zm1.08-.3a.65.65,0,0,0-.15-.39.46.46,0,0,0-.37-.17.51.51,0,0,0-.39.16.58.58,0,0,0-.16.39Z" transform="translate(-6.23 -322.12)"/><path class="cls-10" d="M90.63,354.52a.43.43,0,0,0-.16-.29.51.51,0,0,0-.32-.1.65.65,0,0,0-.38.14q-.2.14-.2.62a1,1,0,0,0,.13.49.45.45,0,0,0,.43.23.46.46,0,0,0,.33-.13.59.59,0,0,0,.16-.35h.46a1,1,0,0,1-.31.62,1.07,1.07,0,0,1-1.4-.09,1.15,1.15,0,0,1-.26-.77,1.24,1.24,0,0,1,.26-.8.93.93,0,0,1,.77-.33,1.11,1.11,0,0,1,.64.19.72.72,0,0,1,.31.57Z" transform="translate(-6.23 -322.12)"/><path class="cls-10" d="M91.42,353.82h.35v-.63h.46v.63h.42v.34h-.42v1.12a.52.52,0,0,0,0,.21s.09.07.19.07h.19v.36h-.3a.59.59,0,0,1-.47-.14.63.63,0,0,1-.11-.4v-1.24h-.35Z" transform="translate(-6.23 -322.12)"/><path class="cls-10" d="M93.15,353.82h.43v.41h0a.68.68,0,0,1,.61-.46h.17v.45h-.2a.52.52,0,0,0-.4.18.78.78,0,0,0-.17.53v1h-.46Z" transform="translate(-6.23 -322.12)"/><path class="cls-10" d="M94.75,353h.46v.44h-.46Zm0,.8h.46v2.1h-.46Z" transform="translate(-6.23 -322.12)"/><path class="cls-10" d="M97.29,354.52a.44.44,0,0,0-.16-.29.51.51,0,0,0-.32-.1.65.65,0,0,0-.38.14c-.13.09-.2.3-.2.62a1,1,0,0,0,.13.49.45.45,0,0,0,.43.23.46.46,0,0,0,.33-.13.59.59,0,0,0,.16-.35h.46a1,1,0,0,1-.31.62,1.07,1.07,0,0,1-1.4-.09,1.15,1.15,0,0,1-.26-.77,1.24,1.24,0,0,1,.26-.8.93.93,0,0,1,.77-.33,1.11,1.11,0,0,1,.64.19.72.72,0,0,1,.31.57Z" transform="translate(-6.23 -322.12)"/><polygon class="cls-10" points="93.08 30.9 93.61 30.9 94.33 33.19 94.34 33.19 95.08 30.9 95.6 30.9 94.61 33.79 94.05 33.79 93.08 30.9"/><path class="cls-10" d="M102.36,355a.71.71,0,0,0,.14.43.49.49,0,0,0,.42.19.55.55,0,0,0,.33-.09.52.52,0,0,0,.18-.26h.44a.84.84,0,0,1-.34.53,1,1,0,0,1-.61.18,1,1,0,0,1-.76-.31,1.27,1.27,0,0,1,0-1.57,1,1,0,0,1,1.51,0,1.15,1.15,0,0,1,.22.85Zm1.08-.3a.65.65,0,0,0-.15-.39.46.46,0,0,0-.37-.17.51.51,0,0,0-.39.16.58.58,0,0,0-.16.39Z" transform="translate(-6.23 -322.12)"/><path class="cls-10" d="M104.41,353h.46v1.07h0a.66.66,0,0,1,.25-.24.74.74,0,0,1,.37-.1.78.78,0,0,1,.54.18.68.68,0,0,1,.2.53v1.44h-.46V354.6a.52.52,0,0,0-.1-.36.39.39,0,0,0-.31-.11.46.46,0,0,0-.37.16.57.57,0,0,0-.14.39v1.24h-.46Z" transform="translate(-6.23 -322.12)"/><path class="cls-10" d="M106.91,353h.46v.44h-.46Zm0,.8h.46v2.1h-.46Z" transform="translate(-6.23 -322.12)"/><path class="cls-10" d="M109.45,354.52a.44.44,0,0,0-.16-.29.51.51,0,0,0-.32-.1.65.65,0,0,0-.38.14q-.2.14-.2.62a1,1,0,0,0,.13.49.45.45,0,0,0,.43.23.46.46,0,0,0,.33-.13.58.58,0,0,0,.17-.35h.46a1,1,0,0,1-.31.62,1.07,1.07,0,0,1-1.4-.09,1.15,1.15,0,0,1-.26-.77,1.25,1.25,0,0,1,.26-.8.93.93,0,0,1,.77-.33,1.11,1.11,0,0,1,.64.19.73.73,0,0,1,.31.57Z" transform="translate(-6.23 -322.12)"/><rect class="cls-10" x="104.23" y="30.9" width="0.46" height="2.89"/><path class="cls-10" d="M112,355a.71.71,0,0,0,.14.43.49.49,0,0,0,.42.19.55.55,0,0,0,.33-.09.51.51,0,0,0,.18-.26h.44a.84.84,0,0,1-.34.53,1,1,0,0,1-.61.18.94.94,0,0,1-.76-.31,1.27,1.27,0,0,1,0-1.57.91.91,0,0,1,.74-.33.9.9,0,0,1,.77.38,1.15,1.15,0,0,1,.22.85Zm1.08-.3a.65.65,0,0,0-.15-.39.46.46,0,0,0-.37-.17.51.51,0,0,0-.39.16.58.58,0,0,0-.16.39Z" transform="translate(-6.23 -322.12)"/><path class="cls-10" d="M115.69,355a.53.53,0,0,0,.21.48.91.91,0,0,0,.52.14.66.66,0,0,0,.47-.14.42.42,0,0,0,.14-.3.35.35,0,0,0-.07-.24.45.45,0,0,0-.16-.11l-.36-.11-.51-.13a.84.84,0,0,1-.51-.31.76.76,0,0,1-.13-.43.71.71,0,0,1,.33-.64,1.33,1.33,0,0,1,.73-.21,1.31,1.31,0,0,1,.78.24.79.79,0,0,1,.33.69H117a.48.48,0,0,0-.19-.4.76.76,0,0,0-.44-.12.86.86,0,0,0-.35.08.3.3,0,0,0-.18.3.31.31,0,0,0,.1.24.61.61,0,0,0,.25.13l.38.1.46.12a.73.73,0,0,1,.43.3.8.8,0,0,1,.14.44.74.74,0,0,1-.36.7,1.54,1.54,0,0,1-.79.21,1.44,1.44,0,0,1-.85-.25.91.91,0,0,1-.36-.79Z" transform="translate(-6.23 -322.12)"/><path class="cls-10" d="M118.45,355a.71.71,0,0,0,.14.43.49.49,0,0,0,.42.19.55.55,0,0,0,.33-.09.51.51,0,0,0,.18-.26H120a.84.84,0,0,1-.34.53,1,1,0,0,1-.61.18,1,1,0,0,1-.76-.31,1.27,1.27,0,0,1,0-1.57,1,1,0,0,1,1.51,0,1.15,1.15,0,0,1,.22.85Zm1.08-.3a.65.65,0,0,0-.15-.39.46.46,0,0,0-.37-.17.51.51,0,0,0-.39.16.59.59,0,0,0-.16.39Z" transform="translate(-6.23 -322.12)"/><path class="cls-10" d="M120.5,353.82h.43v.41h0a.68.68,0,0,1,.61-.46h.17v.45h-.2a.52.52,0,0,0-.4.18.77.77,0,0,0-.17.53v1h-.46Z" transform="translate(-6.23 -322.12)"/><polygon class="cls-10" points="115.65 31.7 116.15 31.7 116.68 33.3 116.69 33.3 117.2 31.7 117.68 31.7 116.93 33.79 116.41 33.79 115.65 31.7"/><path class="cls-10" d="M124.37,353h.46v.44h-.46Zm0,.8h.46v2.1h-.46Z" transform="translate(-6.23 -322.12)"/><path class="cls-10" d="M126.91,354.52a.44.44,0,0,0-.16-.29.51.51,0,0,0-.32-.1.65.65,0,0,0-.38.14c-.13.09-.2.3-.2.62a1,1,0,0,0,.13.49.45.45,0,0,0,.43.23.46.46,0,0,0,.34-.13.59.59,0,0,0,.16-.35h.46a1,1,0,0,1-.31.62,1.07,1.07,0,0,1-1.4-.09,1.15,1.15,0,0,1-.26-.77,1.24,1.24,0,0,1,.26-.8.93.93,0,0,1,.77-.33,1.11,1.11,0,0,1,.64.19.72.72,0,0,1,.31.57Z" transform="translate(-6.23 -322.12)"/><path class="cls-10" d="M128.27,355a.71.71,0,0,0,.14.43.49.49,0,0,0,.42.19.55.55,0,0,0,.33-.09.51.51,0,0,0,.18-.26h.44a.84.84,0,0,1-.34.53,1,1,0,0,1-.61.18.94.94,0,0,1-.76-.31,1.27,1.27,0,0,1,0-1.57.91.91,0,0,1,.74-.33.9.9,0,0,1,.77.38,1.15,1.15,0,0,1,.22.85Zm1.08-.3a.65.65,0,0,0-.15-.39.46.46,0,0,0-.37-.17.51.51,0,0,0-.39.16.58.58,0,0,0-.16.39Z" transform="translate(-6.23 -322.12)"/><path class="cls-10" d="M133.63,353.94a.84.84,0,0,0-.24-.41.68.68,0,0,0-.49-.16.72.72,0,0,0-.67.34,1.5,1.5,0,0,0,0,1.52.72.72,0,0,0,.67.34.65.65,0,0,0,.52-.22.93.93,0,0,0,.21-.54h.49a1.22,1.22,0,0,1-.37.85,1.19,1.19,0,0,1-.87.33,1.25,1.25,0,0,1-1-.45,1.73,1.73,0,0,1,0-2.14,1.23,1.23,0,0,1,1-.45,1.36,1.36,0,0,1,.84.26,1,1,0,0,1,.39.73Z" transform="translate(-6.23 -322.12)"/><path class="cls-10" d="M135.66,356a1,1,0,0,1-.78-.31,1.27,1.27,0,0,1,0-1.59,1.14,1.14,0,0,1,1.56,0,1.28,1.28,0,0,1,0,1.59,1,1,0,0,1-.78.31m0-.37a.49.49,0,0,0,.45-.23,1,1,0,0,0,.14-.51,1,1,0,0,0-.14-.5.56.56,0,0,0-.91,0,.94.94,0,0,0-.14.5,1,1,0,0,0,.14.51.49.49,0,0,0,.45.23" transform="translate(-6.23 -322.12)"/><rect class="cls-10" x="131.07" y="33.24" width="0.56" height="0.55"/><path class="cls-10" d="M138.59,355.37h.56v.55a.61.61,0,0,1-.15.42.7.7,0,0,1-.39.22v-.25a.3.3,0,0,0,.2-.15.45.45,0,0,0,.06-.24h-.28Z" transform="translate(-6.23 -322.12)"/><polygon class="cls-10" points="134.97 30.9 135.47 30.9 135.47 33.35 136.94 33.35 136.94 33.79 134.97 33.79 134.97 30.9"/><path class="cls-10" d="M143.41,353.82h.35v-.63h.46v.63h.42v.34h-.42v1.12a.52.52,0,0,0,0,.21s.09.07.19.07h.19v.36h-.3a.59.59,0,0,1-.47-.14.63.63,0,0,1-.11-.4v-1.24h-.35Z" transform="translate(-6.23 -322.12)"/><path class="cls-10" d="M147.11,355.91h-.44v-.28h0a.54.54,0,0,1-.27.26.92.92,0,0,1-.38.08.86.86,0,0,1-.74-.32,1.29,1.29,0,0,1-.24-.79,1.08,1.08,0,0,1,.28-.83.9.9,0,0,1,.63-.26,1.08,1.08,0,0,1,.39.08.61.61,0,0,1,.3.25h0V353h.46Zm-1.61-1a.91.91,0,0,0,.14.49.55.55,0,0,0,.89,0,1,1,0,0,0,.14-.51.84.84,0,0,0-.16-.54.51.51,0,0,0-.42-.2.48.48,0,0,0-.46.24,1.06,1.06,0,0,0-.13.52" transform="translate(-6.23 -322.12)"/><rect class="cls-10" x="141.58" y="33.24" width="0.56" height="0.55"/><path class="cls-10" d="M118.84,338.49h2.59v.3H121V340h.46v.3h-1v.65h1.3v.3h-3.18v-.3h1.3v-.65h-1V340h.46v-1.16h-.42Zm1,1.46h.58v-1.16h-.58Z" transform="translate(-6.23 -322.12)"/><path class="cls-10" d="M125.46,341.21h-3.22v-.3h3.22Zm-1.32-2.75v.44a1,1,0,0,0,.43.79,1.52,1.52,0,0,0,.85.33l-.26.23a1.85,1.85,0,0,1-.78-.19,1,1,0,0,1-.52-.46.93.93,0,0,1-.52.46,1.88,1.88,0,0,1-.79.19l-.26-.23a1.52,1.52,0,0,0,.85-.33,1,1,0,0,0,.43-.79v-.44Z" transform="translate(-6.23 -322.12)"/><path class="cls-10" d="M129.14,341.21H126v-.3h1V340h.58v.87h1.63Zm-2.91-1.76h2v-.65h-2v-.3h2.56v1.26a2.45,2.45,0,0,1-.06.57,1.21,1.21,0,0,1-.16.4h-.52a.86.86,0,0,0,.13-.39,5.13,5.13,0,0,0,0-.58h-2Z" transform="translate(-6.23 -322.12)"/><rect class="cls-10" x="123.5" y="16.42" width="0.54" height="2.8"/><path class="cls-10" d="M133,339.43a.81.81,0,0,0-.25-.4.77.77,0,0,0-.52-.16.79.79,0,0,0-.71.33,1.34,1.34,0,0,0,0,1.47.8.8,0,0,0,.71.33.72.72,0,0,0,.56-.21.86.86,0,0,0,.23-.52h.53a1.13,1.13,0,0,1-.39.82,1.35,1.35,0,0,1-.92.32,1.39,1.39,0,0,1-1.08-.43,1.56,1.56,0,0,1,0-2.07,1.37,1.37,0,0,1,1.08-.43,1.55,1.55,0,0,1,.89.25.93.93,0,0,1,.42.71Z" transform="translate(-6.23 -322.12)"/><polygon class="cls-10" points="127.52 16.42 130.01 16.42 130.01 16.84 129.03 16.84 129.03 19.22 128.49 19.22 128.49 16.84 127.52 16.84 127.52 16.42"/><polygon class="cls-10" points="131.57 16.42 133.78 16.42 133.78 16.84 132.1 16.84 132.1 17.57 133.66 17.57 133.66 17.97 132.1 17.97 132.1 18.79 133.81 18.79 133.81 19.22 131.57 19.22 131.57 16.42"/><polygon class="cls-10" points="133.93 16.42 134.49 16.42 135.26 18.63 135.27 18.63 136.06 16.42 136.61 16.42 135.56 19.22 134.96 19.22 133.93 16.42"/><path class="cls-10" d="M143.24,338.55H145v.29a1.31,1.31,0,0,1-.52,1.09,1.83,1.83,0,0,1-1.13.42l-.32-.2a1.8,1.8,0,0,0,.71-.19,1.19,1.19,0,0,0,.48-.43h-1v-.3h1.09a.88.88,0,0,0,0-.15c0-.05,0-.11,0-.16v-.06h-1.12Zm1.07,2.84h1.92v.3h-2.1a.44.44,0,0,1-.29-.09.31.31,0,0,1-.12-.26v-.75h.58Zm1.79-2.94v2.4h-.58v-1.22h-.6v-.3h.6v-.88Z" transform="translate(-6.23 -322.12)"/><path class="cls-10" d="M148.68,340.25v.65H150v.3h-3.22v-.3h1.32v-.65Zm0-1.8v.4a1,1,0,0,0,.43.79,1.52,1.52,0,0,0,.85.33l-.26.23a1.86,1.86,0,0,1-.78-.19,1,1,0,0,1-.52-.46.93.93,0,0,1-.52.46,1.88,1.88,0,0,1-.79.19l-.26-.23a1.52,1.52,0,0,0,.85-.33,1,1,0,0,0,.43-.79v-.4Z" transform="translate(-6.23 -322.12)"/><path class="cls-10" d="M151.8,338.51v.62a1.21,1.21,0,0,0,.27.8,1,1,0,0,0,.63.39l-.28.23a1.09,1.09,0,0,1-.56-.22.89.89,0,0,1-.35-.42.82.82,0,0,1-.35.42,1.14,1.14,0,0,1-.57.22l-.28-.23a1,1,0,0,0,.63-.39,1.21,1.21,0,0,0,.27-.79v-.62Zm1.71,3.17h-.58v-3.24h.58Z" transform="translate(-6.23 -322.12)"/><path class="cls-10" d="M157.24,338.44v1.73h-.58v-.78h-.5a.78.78,0,0,1-.32.51,1.06,1.06,0,0,1-.65.21,1,1,0,0,1-.7-.24.74.74,0,0,1,0-1.18,1.12,1.12,0,0,1,1.32-.06.83.83,0,0,1,.35.46h.51v-.65Zm-2.34.45a.64.64,0,0,0,0,.75.34.34,0,0,0,.57,0,.64.64,0,0,0,0-.75.34.34,0,0,0-.57,0m2.34,1.51v1.28h-2a.42.42,0,0,1-.29-.1.32.32,0,0,1-.11-.25v-.93Zm-.58.3h-1.24v.68h1.24Z" transform="translate(-6.23 -322.12)"/></svg>