<?xml version="1.0" encoding="utf-8"?>
<!-- Generator: Adobe Illustrator 22.0.1, SVG Export Plug-In . SVG Version: 6.00 Build 0)  -->
<svg version="1.1" id="레이어_1" xmlns="http://www.w3.org/2000/svg" xmlns:xlink="http://www.w3.org/1999/xlink" x="0px"
	 y="0px" viewBox="0 0 154.4 43.5" style="enable-background:new 0 0 154.4 43.5;" xml:space="preserve">
<style type="text/css">
	.st0{clip-path:url(#SVGID_2_);}
	.st1{fill:url(#SVGID_3_);}
	.st2{clip-path:url(#SVGID_5_);}
	.st3{fill:url(#SVGID_6_);}
	.st4{clip-path:url(#SVGID_8_);}
	.st5{fill:url(#SVGID_9_);}
	.st6{fill:#F5A200;}
	.st7{fill:#FFFFFF;}
	.st8{fill:#999999;}
</style>
<title>벡터고급개체_466ffbd7-8e87-437e-95b9-b4943562a927</title>
<g>
	<g>
		<defs>
			<path id="SVGID_1_" d="M11.3,16.6l-1.4,2L8.8,18C5.1,24.9,8.2,28.4,9,29.1c0.6,0.5,1.4,0.9,2.2,1c-3.8-4.8,3.4-9.1,3.4-9.1
				l-1.3-0.7l1.3-2c0.1-0.2,0.1-0.4-0.1-0.5l0,0l-0.3-0.2c-0.2-0.1-0.5-0.1-0.6,0.1l-1.4,2L11,19.1l1.4-2c0.1-0.2,0.1-0.4-0.1-0.5
				l0,0L12,16.4c-0.1,0-0.1-0.1-0.2-0.1C11.5,16.4,11.4,16.4,11.3,16.6"/>
		</defs>
		<clipPath id="SVGID_2_">
			<use xlink:href="#SVGID_1_"  style="overflow:visible;"/>
		</clipPath>
		<g class="st0">
			
				<linearGradient id="SVGID_3_" gradientUnits="userSpaceOnUse" x1="-326.3029" y1="818.7706" x2="-325.6086" y2="818.7706" gradientTransform="matrix(-7.5041 17.4662 17.4662 7.5041 -16736.8594 -427.6752)">
				<stop  offset="0" style="stop-color:#0097E0"/>
				<stop  offset="1" style="stop-color:#0075C2"/>
			</linearGradient>
			<polygon class="st1" points="0.2,28 6.6,12.9 19.8,18.5 13.3,33.6 			"/>
		</g>
	</g>
</g>
<g>
	<g>
		<defs>
			<path id="SVGID_4_" d="M12,30.8c-3.6-0.4-6-3-5.6-6.7c0-0.2,0.1-0.4,0.1-0.6c-0.7,1.4-1.2,2.9-1.4,4.5c0,0.4-0.1,0.7-0.1,1.1v0.1
				c0,4.9,3.8,7.7,9.2,7.7h0.1c1.1,0,2.1-0.1,3.2-0.3c7.5-1.4,13.7-7.4,14.6-13.9c0.4-2.1,0.2-4.2-0.3-6.2
				C25.1,32.4,14.7,32.5,12,30.8"/>
		</defs>
		<clipPath id="SVGID_5_">
			<use xlink:href="#SVGID_4_"  style="overflow:visible;"/>
		</clipPath>
		<g class="st2">
			
				<linearGradient id="SVGID_6_" gradientUnits="userSpaceOnUse" x1="-336.0711" y1="781.1703" x2="-335.3768" y2="781.1703" gradientTransform="matrix(39.27 0 0 -39.27 13202.5801 30703.1094)">
				<stop  offset="0" style="stop-color:#00B9EF"/>
				<stop  offset="1" style="stop-color:#0096DA"/>
			</linearGradient>
			<rect x="5" y="16.3" class="st3" width="27.4" height="20.5"/>
		</g>
	</g>
</g>
<g>
	<g>
		<defs>
			<path id="SVGID_7_" d="M22.6,10.6c0,0.3,0.2,0.6,0.5,0.7c0.3,0,0.6-0.2,0.7-0.5c0-0.3-0.2-0.6-0.5-0.7c0,0,0,0-0.1,0
				C22.9,10,22.6,10.3,22.6,10.6 M26.8,15.5c0-0.3,0.2-0.5,0.4-0.5s0.5,0.2,0.5,0.4c0,0.3-0.2,0.5-0.4,0.5l0,0
				C27,16,26.8,15.8,26.8,15.5L26.8,15.5 M25.1,11.1c0.2-0.2,0.5-0.3,0.8-0.2c0.6,0,1.1,0.4,1.2,1c0,0.6-0.4,1.1-1,1.2
				c-0.1,0-0.1,0-0.2,0h-0.1c0.5,2.4,0.5,4.9-0.1,7.3c-1.1,4.6-5.3,9.3-10.6,10.3c-1,0.2-2.1,0.2-3.1,0.1c1.7,1.1,6.5,1.4,11.5-2.5
				c5.6-5.9,6.4-11.6,6.4-13.7c-0.1,0-0.2,0-0.3,0c-1,0.1-1.9-0.7-1.9-1.7c0-0.5,0.2-0.9,0.6-1.2c-1.2-0.9-2.5-1.5-4-1.9
				C24.6,10.1,24.9,10.6,25.1,11.1 M17.1,7.6C17,8.2,17.4,8.7,18,8.8s1.1-0.3,1.2-0.9s-0.3-1.1-0.9-1.2h-0.1
				C17.6,6.7,17.1,7.1,17.1,7.6 M21.9,7.9c-0.1,0.7,0.5,1.4,1.2,1.5c0.7,0.1,1.4-0.5,1.5-1.2s-0.5-1.4-1.2-1.5h-0.1
				C22.5,6.6,21.9,7.2,21.9,7.9"/>
		</defs>
		<clipPath id="SVGID_8_">
			<use xlink:href="#SVGID_7_"  style="overflow:visible;"/>
		</clipPath>
		<g class="st4">
			
				<linearGradient id="SVGID_9_" gradientUnits="userSpaceOnUse" x1="-333.1896" y1="776.3044" x2="-332.4954" y2="776.3044" gradientTransform="matrix(28.51 0 0 -28.51 9511.1396 22151.8906)">
				<stop  offset="0" style="stop-color:#ABCD03"/>
				<stop  offset="1" style="stop-color:#C3D82E"/>
			</linearGradient>
			<rect x="12" y="6.7" class="st5" width="18" height="25.5"/>
		</g>
	</g>
</g>
<path class="st6" d="M31.8,16.3c-0.2-0.8-0.6-1.5-1-2.1c-0.2,0.2-0.5,0.3-0.8,0.3c-0.1,2.2-0.9,7.8-6.4,13.7
	C26.4,25.9,29.3,22.2,31.8,16.3"/>
<path class="st7" d="M41.3,30.3c-0.5-0.7-1-1.5-1.3-2.4S39.5,26,39.5,25c0-0.9,0.2-1.9,0.5-2.8s0.8-1.8,1.4-2.6h1.1
	c-0.5,0.8-0.9,1.7-1.1,2.6C41.1,23.1,41,24,41,25c0,0.9,0.1,1.9,0.4,2.8c0.2,0.9,0.6,1.8,1.1,2.6h-1.2V30.3z"/>
<path class="st7" d="M51.8,25v0.9h-4.1v3.3H46v-3.3h-4.1V25H51.8z M43,19.7h7.8v0.9h-3v0.1c0,0.8,0.5,1.5,1.2,1.9
	c0.7,0.5,1.6,0.8,2.5,0.8L50.7,24c-0.8,0-1.5-0.2-2.3-0.5c-0.6-0.2-1.2-0.6-1.5-1.1c-0.4,0.5-0.9,0.9-1.5,1.1
	c-0.7,0.3-1.5,0.5-2.3,0.5l-0.8-0.7c0.9,0,1.8-0.3,2.5-0.8c0.7-0.4,1.2-1.1,1.2-1.8v-0.1h-3C43,20.6,43,19.7,43,19.7z"/>
<path class="st7" d="M52.7,19.7c0.5,0.8,0.9,1.6,1.3,2.4c0.4,0.9,0.5,1.9,0.5,2.9c0,0.9-0.2,1.9-0.5,2.8s-0.8,1.8-1.4,2.6h-1.2
	c0.5-0.8,0.9-1.7,1.1-2.6C52.9,26.9,53,26,53,25c0-0.9-0.1-1.9-0.4-2.8c-0.3-0.9-0.7-1.8-1.2-2.6h1.3V19.7z"/>
<path class="st7" d="M62.5,29.2h-1.6v-3.9l-0.7,0.6c-0.5-0.1-1-0.3-1.4-0.7c-0.4-0.3-0.7-0.7-0.8-1.2c-0.1,0.5-0.4,0.9-0.8,1.2
	c-0.4,0.4-0.9,0.6-1.4,0.7L55,25.3c0.7-0.2,1.2-0.6,1.6-1.2c0.4-0.7,0.6-1.5,0.6-2.3v-1h-1.5v-0.9h4.6v0.9h-1.4v1
	c0,0.8,0.2,1.6,0.6,2.3c0.3,0.6,0.9,1,1.6,1.2v-2.5h-1.4v-0.9h1.4v-2.3h1.6L62.5,29.2z M64.7,29.2h-1.6v-9.6h1.6V29.2z"/>
<path class="st7" d="M75.2,25v0.9h-4.1v3.3h-1.7v-3.3h-4.1V25H75.2z M66.4,19.7h7.8v0.9h-3v0.1c0,0.8,0.5,1.5,1.2,1.9
	c0.7,0.5,1.6,0.8,2.5,0.8L74.1,24c-0.8,0-1.5-0.2-2.3-0.5c-0.6-0.2-1.2-0.6-1.5-1.1c-0.4,0.5-0.9,0.9-1.5,1.1
	C68,23.8,67.3,24,66.5,24l-0.8-0.7c0.9,0,1.8-0.3,2.5-0.8c0.7-0.4,1.2-1.1,1.2-1.8v-0.1h-3.1L66.4,19.7z"/>
<path class="st7" d="M75.7,19.9h5.6v0.9h-2v0.6c0,0.8,0.3,1.6,0.8,2.2c0.5,0.5,1.1,0.9,1.8,1l-0.8,0.7c-0.6-0.1-1.1-0.3-1.6-0.6
	c-0.5-0.3-0.8-0.6-1-1.1c-0.2,0.5-0.6,0.9-1,1.1c-0.5,0.3-1.1,0.5-1.6,0.6L75,24.6c0.7-0.1,1.4-0.5,1.9-1c0.5-0.6,0.8-1.4,0.8-2.2
	v-0.6h-1.9v-0.9H75.7z M79.1,28.3h5.6v0.9h-6.2c-0.3,0-0.6-0.1-0.8-0.3c-0.2-0.2-0.4-0.5-0.3-0.8v-2.2h1.7L79.1,28.3z M84.4,19.6
	v7.1h-1.7v-4h-2v-0.9h2v-2.3L84.4,19.6z"/>
<path class="st7" d="M85.7,19.9H91v1c0.1,1.4-0.5,2.8-1.6,3.7c-0.9,0.8-2.1,1.3-3.3,1.4l-0.9-0.6c1.1-0.1,2.1-0.6,2.9-1.3
	c0.8-0.8,1.2-2,1.1-3.1v-0.2h-3.4L85.7,19.9z M94.3,29.2h-1.7v-9.6h1.7V29.2z"/>
<path class="st7" d="M95.3,20.8v-0.9h5.7v0.9h-2v0.9c0,0.9,0.3,1.7,0.8,2.3c0.5,0.6,1.1,1,1.8,1.1l-0.8,0.7
	c-0.6-0.1-1.2-0.3-1.7-0.6c-0.5-0.3-0.8-0.7-1-1.2c-0.2,0.5-0.5,0.9-1,1.2c-0.5,0.4-1.1,0.6-1.7,0.7l-0.9-0.7
	c0.7-0.1,1.4-0.5,1.9-1.1c0.5-0.7,0.8-1.5,0.8-2.3v-0.9L95.3,20.8z M102.1,19.6h1.7V22h1.7v0.9h-1.7v6.3h-1.7V19.6z"/>
<path class="st7" d="M114.8,24.9h-9.7V24h4v-1h-1.6c-0.3,0-0.6-0.1-0.9-0.3c-0.2-0.2-0.3-0.5-0.3-0.7v-2.4h7.4v0.9H108v1.6h5.8V23
	h-2.9v1h4L114.8,24.9z M112,25.9c0.8,0.5,1.1,1.6,0.5,2.4c-0.1,0.2-0.3,0.4-0.5,0.5c-0.6,0.4-1.3,0.6-2,0.6s-1.4-0.2-2-0.6
	c-0.8-0.5-1.1-1.6-0.6-2.4c0.1-0.2,0.3-0.4,0.6-0.6c0.6-0.4,1.3-0.6,2-0.6C110.7,25.3,111.4,25.5,112,25.9 M109.3,26.5
	c-0.4,0.5-0.4,1.2,0,1.7c0.3,0.4,0.9,0.5,1.3,0.2c0.1,0,0.1-0.1,0.2-0.2c0.4-0.5,0.4-1.2,0-1.7c-0.3-0.4-0.9-0.5-1.3-0.2
	C109.4,26.4,109.3,26.5,109.3,26.5"/>
<path class="st7" d="M118.9,19.5v1.1h2v0.9h-2v0.3c0,0.9,0.3,1.7,0.8,2.3c0.5,0.6,1.1,1,1.8,1.1l-0.8,0.7c-0.6-0.1-1.2-0.3-1.7-0.6
	c-0.5-0.3-0.8-0.7-1-1.3c-0.2,0.5-0.5,1-1,1.2c-0.5,0.4-1.1,0.6-1.7,0.7l-0.9-0.7c0.7-0.1,1.4-0.5,1.9-1.1c0.5-0.7,0.8-1.5,0.8-2.3
	v-0.3h-2v-0.9h2v-1.1C117.1,19.5,118.9,19.5,118.9,19.5z M123.6,22h1.7v0.9h-1.7v6.3h-1.7v-9.6h1.7V22z"/>
<path class="st7" d="M128.9,19.8v1.8c0,0.9,0.3,1.7,0.8,2.3c0.5,0.6,1.1,1,1.8,1.1l-0.8,0.7c-0.6-0.1-1.2-0.3-1.7-0.6
	c-0.5-0.3-0.8-0.7-1-1.3c-0.2,0.5-0.5,1-1,1.2c-0.5,0.4-1.1,0.6-1.7,0.7l-0.8-0.7c0.7-0.1,1.4-0.5,1.9-1.1c0.5-0.7,0.8-1.5,0.8-2.3
	v-1.8C127.2,19.8,128.9,19.8,128.9,19.8z M130.1,21.7h2.2v-2.1h1.7v9.6h-1.7v-6.6h-2.1L130.1,21.7z"/>
<path class="st7" d="M137.1,19.9v1.9h2v-1.9h1.7v5.8h-4.2c-0.3,0-0.6-0.1-0.9-0.3c-0.2-0.2-0.3-0.5-0.3-0.7v-4.8
	C135.4,19.9,137.1,19.9,137.1,19.9z M139,22.7h-1.9v2.2h2L139,22.7z M143.9,29.2h-1.7v-9.6h1.7V29.2z"/>
<path class="st7" d="M154.4,27.8h-9.5v-0.9h9.5V27.8z M150.5,19.6v1.3c0,0.9,0.5,1.8,1.3,2.3c0.7,0.6,1.6,0.9,2.5,1l-0.8,0.7
	c-0.8,0-1.6-0.2-2.3-0.6c-0.7-0.2-1.2-0.7-1.5-1.3c-0.3,0.6-0.9,1.1-1.5,1.4c-0.7,0.4-1.5,0.5-2.3,0.6l-0.8-0.7
	c0.9-0.1,1.8-0.4,2.5-1c0.8-0.5,1.3-1.4,1.3-2.3v-1.3h1.6V19.6z"/>
<path class="st8" d="M56.4,32.7c0,0.3-0.1,0.5-0.2,0.8c-0.1,0.2-0.4,0.3-0.9,0.3c-0.3,0-0.6-0.1-0.7-0.3c-0.2-0.2-0.2-0.5-0.2-0.7
	v-0.2H55v0.2c0,0.1,0,0.3,0.1,0.4c0.2,0.2,0.5,0.2,0.7,0l0,0c0.1-0.1,0.1-0.3,0.1-0.5v-2.3h0.6L56.4,32.7z"/>
<path class="st8" d="M57.6,32.7c0,0.2,0.1,0.3,0.2,0.5c0.1,0.1,0.3,0.2,0.5,0.2c0.1,0,0.3,0,0.4-0.1c0.1-0.1,0.2-0.2,0.2-0.3h0.5
	c0,0.2-0.2,0.5-0.4,0.6s-0.4,0.2-0.7,0.2s-0.6-0.1-0.9-0.3c-0.4-0.5-0.4-1.3,0-1.8s1.1-0.5,1.6-0.1l0.1,0.1c0.2,0.3,0.3,0.6,0.2,1
	L57.6,32.7z M58.8,32.3c0-0.2-0.1-0.3-0.2-0.4c-0.1-0.1-0.3-0.2-0.4-0.2c-0.2,0-0.3,0.1-0.4,0.2c-0.1,0.1-0.2,0.3-0.2,0.4H58.8z"/>
<path class="st8" d="M61.8,32.7c0,0.3-0.1,0.5-0.2,0.8c-0.1,0.2-0.4,0.3-0.9,0.3c-0.3,0-0.6-0.1-0.7-0.3c-0.2-0.2-0.2-0.5-0.2-0.7
	v-0.2h0.6v0.2c0,0.1,0,0.3,0.1,0.4c0.2,0.2,0.5,0.2,0.7,0l0,0c0.1-0.2,0.1-0.3,0.1-0.5v-2.3h0.6L61.8,32.7z"/>
<path class="st8" d="M64.6,33.7h-0.5v-0.3l0,0c-0.1,0.1-0.2,0.2-0.3,0.3s-0.2,0.1-0.4,0.1s-0.5-0.1-0.7-0.2
	c-0.2-0.2-0.2-0.4-0.2-0.7v-1.5H63v1.4c0,0.2,0,0.3,0.1,0.4c0.1,0.1,0.2,0.1,0.3,0.1c0.2,0,0.3,0,0.5-0.2C64,33,64,32.8,64,32.6
	v-1.4h0.5v2.5H64.6z"/>
<polygon class="st8" points="66.9,30.4 69.2,30.4 69.2,30.9 67.5,30.9 67.5,31.8 69.1,31.8 69.1,32.3 67.5,32.3 67.5,33.2 
	69.3,33.2 69.3,33.7 66.9,33.7 "/>
<rect x="69.9" y="30.4" class="st8" width="0.5" height="3.3"/>
<path class="st8" d="M71.6,32.7c0,0.2,0.1,0.3,0.2,0.5c0.1,0.1,0.3,0.2,0.5,0.2c0.1,0,0.3,0,0.4-0.1s0.2-0.2,0.2-0.3h0.5
	c0,0.2-0.2,0.5-0.4,0.6c-0.2,0.1-0.4,0.2-0.7,0.2c-0.3,0-0.6-0.1-0.9-0.3c-0.4-0.5-0.4-1.3,0-1.8c0.2-0.2,0.5-0.4,0.8-0.4
	s0.7,0.1,0.9,0.4c0.2,0.3,0.3,0.6,0.2,1C73.3,32.7,71.6,32.7,71.6,32.7z M72.8,32.3c0-0.2-0.1-0.3-0.2-0.4s-0.3-0.2-0.4-0.2
	c-0.2,0-0.3,0.1-0.4,0.2s-0.2,0.3-0.2,0.4H72.8z"/>
<path class="st8" d="M75.5,32.1c0-0.1-0.1-0.2-0.2-0.3c-0.1-0.1-0.2-0.1-0.4-0.1c-0.2,0-0.3,0.1-0.4,0.2c-0.2,0.1-0.2,0.3-0.2,0.7
	c0,0.2,0.1,0.4,0.1,0.6c0.1,0.2,0.3,0.3,0.5,0.3c0.1,0,0.3,0,0.4-0.1s0.2-0.2,0.2-0.4H76c0,0.3-0.2,0.5-0.3,0.7
	c-0.5,0.4-1.2,0.3-1.6-0.1c-0.2-0.2-0.3-0.6-0.3-0.9c0-0.3,0.1-0.6,0.3-0.9c0.2-0.3,0.5-0.4,0.9-0.4c0.3,0,0.5,0.1,0.7,0.2
	S76,32,76,32.2L75.5,32.1z"/>
<path class="st8" d="M76.4,31.4h0.4v-0.7h0.5v0.7h0.5v0.4h-0.5V33c0,0.1,0,0.2,0,0.2s0.1,0.1,0.2,0.1h0.2v0.4h-0.3
	c-0.2,0-0.4,0-0.5-0.2c-0.1-0.1-0.1-0.3-0.1-0.5v-1.4h-0.4L76.4,31.4z"/>
<path class="st8" d="M78.3,31.4h0.5v0.5l0,0c0.1-0.3,0.4-0.5,0.7-0.5h0.2v0.5h-0.2c-0.2,0-0.3,0.1-0.5,0.2c-0.1,0.2-0.2,0.4-0.2,0.6
	v1.1h-0.5V31.4z"/>
<path class="st8" d="M80.1,30.4h0.5v0.5h-0.5V30.4z M80.1,31.3h0.5v2.4h-0.5V31.3z"/>
<path class="st8" d="M83,32.1c0-0.1-0.1-0.2-0.2-0.3c-0.1-0.1-0.2-0.1-0.4-0.1c-0.2,0-0.3,0.1-0.4,0.2s-0.2,0.3-0.2,0.7
	c0,0.2,0.1,0.4,0.1,0.6c0.1,0.2,0.3,0.3,0.5,0.3c0.1,0,0.3,0,0.4-0.1S83,33.2,83,33h0.5c0,0.3-0.2,0.5-0.3,0.7
	c-0.5,0.4-1.2,0.3-1.6-0.1c-0.2-0.2-0.3-0.6-0.3-0.9c0-0.3,0.1-0.6,0.3-0.9c0.2-0.3,0.5-0.4,0.9-0.4c0.3,0,0.5,0.1,0.7,0.2
	s0.3,0.4,0.3,0.6L83,32.1z"/>
<polygon class="st8" points="85.3,30.4 85.9,30.4 86.7,33 86.7,33 87.5,30.4 88.1,30.4 87,33.7 86.4,33.7 "/>
<path class="st8" d="M88.7,32.7c0,0.2,0.1,0.3,0.2,0.5c0.1,0.1,0.3,0.2,0.5,0.2c0.1,0,0.3,0,0.4-0.1S90,33.1,90,33h0.5
	c0,0.2-0.2,0.5-0.4,0.6c-0.2,0.1-0.4,0.2-0.7,0.2c-0.3,0-0.6-0.1-0.9-0.3c-0.4-0.5-0.4-1.3,0-1.8s1.1-0.5,1.6-0.1l0.1,0.1
	c0.2,0.3,0.3,0.6,0.2,1L88.7,32.7z M89.9,32.3c0-0.2-0.1-0.3-0.2-0.4s-0.3-0.2-0.4-0.2c-0.2,0-0.3,0.1-0.4,0.2s-0.2,0.3-0.2,0.4
	H89.9z"/>
<path class="st8" d="M91,30.4h0.5v1.2l0,0c0.1-0.1,0.2-0.2,0.3-0.3c0.1-0.1,0.3-0.1,0.4-0.1c0.2,0,0.4,0.1,0.6,0.2
	C93,31.6,93,31.8,93,32v1.6h-0.5v-1.4c0-0.1,0-0.3-0.1-0.4s-0.2-0.1-0.3-0.1c-0.2,0-0.3,0.1-0.4,0.2s-0.2,0.3-0.2,0.4v1.4H91V30.4z"
	/>
<path class="st8" d="M93.8,30.4h0.5v0.5h-0.5V30.4z M93.8,31.3h0.5v2.4h-0.5V31.3z"/>
<path class="st8" d="M96.7,32.1c0-0.1-0.1-0.2-0.2-0.3c-0.1-0.1-0.2-0.1-0.4-0.1c-0.2,0-0.3,0.1-0.4,0.2c-0.2,0.1-0.2,0.3-0.2,0.7
	c0,0.2,0.1,0.4,0.1,0.6c0.1,0.2,0.3,0.3,0.5,0.3c0.1,0,0.3,0,0.4-0.1s0.2-0.2,0.2-0.4h0.5c0,0.3-0.2,0.5-0.3,0.7
	c-0.5,0.4-1.2,0.3-1.6-0.1C95.1,33.4,95,33,95,32.7c0-0.3,0.1-0.6,0.3-0.9c0.2-0.3,0.5-0.4,0.9-0.4c0.3,0,0.5,0.1,0.7,0.2
	s0.3,0.4,0.3,0.6L96.7,32.1z"/>
<rect x="97.8" y="30.4" class="st8" width="0.5" height="3.3"/>
<path class="st8" d="M99.6,32.7c0,0.2,0.1,0.3,0.2,0.5c0.1,0.1,0.3,0.2,0.5,0.2c0.1,0,0.3,0,0.4-0.1s0.2-0.2,0.2-0.3h0.5
	c0,0.2-0.2,0.5-0.4,0.6c-0.2,0.1-0.4,0.2-0.7,0.2c-0.3,0-0.6-0.1-0.9-0.3c-0.4-0.5-0.4-1.3,0-1.8c0.2-0.2,0.5-0.4,0.8-0.4
	s0.7,0.1,0.9,0.4c0.2,0.3,0.3,0.6,0.2,1C101.3,32.7,99.6,32.7,99.6,32.7z M100.8,32.3c0-0.2-0.1-0.3-0.2-0.4s-0.3-0.2-0.4-0.2
	c-0.2,0-0.3,0.1-0.4,0.2s-0.2,0.3-0.2,0.4H100.8z"/>
<path class="st8" d="M103.7,32.7c0,0.2,0.1,0.4,0.2,0.5c0.2,0.1,0.4,0.2,0.6,0.2s0.4,0,0.5-0.2c0.1-0.1,0.2-0.2,0.2-0.3
	s0-0.2-0.1-0.3s-0.1-0.1-0.2-0.1l-0.4-0.1l-0.6-0.1c-0.2,0-0.4-0.2-0.6-0.3c-0.1-0.1-0.1-0.3-0.1-0.5c0-0.3,0.1-0.6,0.4-0.7
	c0.2-0.2,0.5-0.2,0.8-0.2s0.6,0.1,0.9,0.3c0.2,0.2,0.4,0.5,0.4,0.8h-0.5c0-0.2-0.1-0.3-0.2-0.5c-0.1-0.1-0.3-0.1-0.5-0.1
	c-0.1,0-0.3,0-0.4,0.1s-0.2,0.2-0.2,0.3c0,0.1,0,0.2,0.1,0.3c0.1,0.1,0.2,0.1,0.3,0.1l0.4,0.1l0.5,0.1c0.2,0,0.4,0.2,0.5,0.3
	s0.2,0.3,0.2,0.5c0,0.3-0.1,0.6-0.4,0.8s-0.6,0.2-0.9,0.2s-0.7-0.1-1-0.3s-0.4-0.5-0.4-0.9H103.7z"/>
<path class="st8" d="M106.8,32.7c0,0.2,0.1,0.3,0.2,0.5c0.1,0.1,0.3,0.2,0.5,0.2c0.1,0,0.3,0,0.4-0.1s0.2-0.2,0.2-0.3h0.5
	c0,0.2-0.2,0.5-0.4,0.6c-0.2,0.1-0.4,0.2-0.7,0.2c-0.3,0-0.6-0.1-0.9-0.3c-0.4-0.5-0.4-1.3,0-1.8s1.1-0.5,1.6-0.1l0.1,0.1
	c0.2,0.3,0.3,0.6,0.2,1L106.8,32.7z M108.1,32.3c0-0.2-0.1-0.3-0.2-0.4s-0.3-0.2-0.4-0.2c-0.2,0-0.3,0.1-0.4,0.2s-0.2,0.3-0.2,0.4
	H108.1z"/>
<path class="st8" d="M109.2,31.4h0.5v0.5l0,0c0.1-0.3,0.4-0.5,0.7-0.5h0.2v0.5h-0.2c-0.2,0-0.3,0.1-0.5,0.2
	c-0.1,0.2-0.2,0.4-0.2,0.6v1.1h-0.5V31.4z"/>
<polygon class="st8" points="110.7,31.4 111.3,31.4 111.9,33.2 111.9,33.2 112.5,31.4 113,31.4 112.2,33.7 111.6,33.7 "/>
<path class="st8" d="M113.5,30.4h0.5v0.5h-0.5V30.4z M113.5,31.3h0.5v2.4h-0.5V31.3z"/>
<path class="st8" d="M116.4,32.1c0-0.1-0.1-0.2-0.2-0.3c-0.1-0.1-0.2-0.1-0.4-0.1c-0.2,0-0.3,0.1-0.4,0.2s-0.2,0.3-0.2,0.7
	c0,0.2,0.1,0.4,0.1,0.6c0.1,0.2,0.3,0.3,0.5,0.3c0.1,0,0.3,0,0.4-0.1s0.2-0.2,0.2-0.4h0.5c0,0.3-0.2,0.5-0.3,0.7
	c-0.5,0.4-1.2,0.3-1.6-0.1c-0.2-0.2-0.3-0.6-0.3-0.9c0-0.3,0.1-0.6,0.3-0.9c0.2-0.3,0.5-0.4,0.9-0.4c0.3,0,0.5,0.1,0.7,0.2
	s0.3,0.4,0.3,0.6L116.4,32.1z"/>
<path class="st8" d="M117.9,32.7c0,0.2,0.1,0.3,0.2,0.5c0.1,0.1,0.3,0.2,0.5,0.2c0.1,0,0.3,0,0.4-0.1s0.2-0.2,0.2-0.3h0.5
	c0,0.2-0.2,0.5-0.4,0.6c-0.2,0.1-0.4,0.2-0.7,0.2c-0.3,0-0.6-0.1-0.9-0.3c-0.4-0.5-0.4-1.3,0-1.8c0.2-0.2,0.5-0.4,0.8-0.4
	s0.7,0.1,0.9,0.4c0.2,0.3,0.3,0.6,0.2,1C119.6,32.7,117.9,32.7,117.9,32.7z M119.1,32.3c0-0.2-0.1-0.3-0.2-0.4s-0.3-0.2-0.4-0.2
	c-0.2,0-0.3,0.1-0.4,0.2s-0.2,0.3-0.2,0.4H119.1z"/>
<path class="st8" d="M124,31.5c0-0.2-0.1-0.3-0.3-0.5c-0.2-0.1-0.4-0.2-0.6-0.2c-0.3,0-0.6,0.1-0.8,0.4c-0.3,0.5-0.3,1.2,0,1.7
	c0.2,0.3,0.5,0.4,0.8,0.4c0.2,0,0.4-0.1,0.6-0.2c0.1-0.2,0.2-0.4,0.2-0.6h0.6c0,0.4-0.2,0.7-0.4,1c-0.3,0.3-0.6,0.4-1,0.4
	s-0.8-0.2-1.1-0.5c-0.6-0.7-0.6-1.7,0-2.4c0.3-0.3,0.7-0.5,1.1-0.5c0.3,0,0.7,0.1,0.9,0.3c0.3,0.2,0.4,0.5,0.4,0.8L124,31.5z"/>
<path class="st8" d="M126.2,33.8c-0.3,0-0.7-0.1-0.9-0.3c-0.4-0.5-0.4-1.3,0-1.8c0.5-0.5,1.3-0.5,1.8,0c0.4,0.5,0.4,1.3,0,1.8
	C126.9,33.7,126.6,33.8,126.2,33.8 M126.2,33.4c0.2,0,0.4-0.1,0.5-0.3s0.2-0.4,0.2-0.6c0-0.2-0.1-0.4-0.2-0.6
	c-0.2-0.3-0.6-0.3-0.9-0.1c-0.1,0-0.1,0.1-0.1,0.1c-0.1,0.2-0.2,0.4-0.2,0.6s0.1,0.4,0.2,0.6C125.8,33.3,126,33.4,126.2,33.4"/>
<rect x="128.1" y="33.1" class="st8" width="0.6" height="0.6"/>
<path class="st8" d="M129.6,33.1h0.6v0.6c0,0.2-0.1,0.3-0.2,0.5c-0.1,0.1-0.3,0.2-0.4,0.2v-0.3c0.1,0,0.2-0.1,0.2-0.2
	c0-0.1,0.1-0.2,0.1-0.3h-0.3L129.6,33.1L129.6,33.1z"/>
<polygon class="st8" points="132.5,30.4 133.1,30.4 133.1,33.2 134.7,33.2 134.7,33.7 132.5,33.7 "/>
<path class="st8" d="M135,31.4h0.4v-0.7h0.5v0.7h0.5v0.4h-0.5V33c0,0.1,0,0.2,0,0.2s0.1,0.1,0.2,0.1h0.2v0.4H136
	c-0.2,0-0.4,0-0.5-0.2c-0.1-0.1-0.1-0.3-0.1-0.5v-1.4H135V31.4z"/>
<path class="st8" d="M139.2,33.7h-0.5v-0.3l0,0c-0.1,0.1-0.2,0.2-0.3,0.3s-0.3,0.1-0.4,0.1c-0.3,0-0.6-0.1-0.8-0.4
	c-0.2-0.3-0.3-0.6-0.3-0.9c0-0.3,0.1-0.7,0.3-0.9c0.2-0.2,0.4-0.3,0.7-0.3c0.2,0,0.3,0,0.4,0.1c0.1,0.1,0.3,0.2,0.3,0.3l0,0v-1.2
	h0.5L139.2,33.7z M137.3,32.6c0,0.2,0.1,0.4,0.2,0.6c0.2,0.3,0.6,0.3,0.9,0.1c0.1,0,0.1-0.1,0.1-0.1c0.1-0.2,0.2-0.4,0.2-0.6
	c0-0.2-0.1-0.4-0.2-0.6c-0.1-0.1-0.3-0.2-0.5-0.2s-0.4,0.1-0.5,0.3C137.4,32.2,137.3,32.4,137.3,32.6"/>
<rect x="139.9" y="33.1" class="st8" width="0.6" height="0.6"/>
<g>
	<path class="st8" d="M105.4,17.7c0,0.1-0.1,0.1-0.3,0.1c-0.2,0-0.3,0-0.3-0.1v-1.2h-2.5V16h1.3v-0.6h-1.8v-0.5h3v-1
		c0-0.1-0.1-0.2-0.2-0.2h-2.2v-0.5h2.4c0.1,0,0.3,0.1,0.4,0.2c0.1,0.1,0.2,0.2,0.2,0.3v1.1h0.6c0.1,0,0.1,0.1,0.1,0.2
		c0,0.2,0,0.2-0.1,0.2h-1.8V16h1c0.2,0,0.2,0,0.2,0.2V17.7z"/>
	<path class="st8" d="M107,16.3c-0.1,0-0.2-0.1-0.3-0.2c-0.1-0.1-0.2-0.2-0.2-0.3v-2.2h0.6v2.1c0,0.1,0.1,0.2,0.2,0.2h1.2
		c0.1,0,0.1,0.1,0.1,0.2c0,0.2,0,0.2-0.1,0.2H107z M109.8,13.2h0.6v4.1c0,0.1-0.1,0.1-0.3,0.1c-0.2,0-0.3,0-0.3-0.1v-2.2h-0.5v2.1
		c0,0.1-0.1,0.1-0.3,0.1c-0.2,0-0.3,0-0.3-0.1v-4h0.5v1.4h0.5V13.2z"/>
	<path class="st8" d="M111.7,13.9l-0.7,0.3v-0.5l0.7-0.3h0.5V17c0,0.1-0.1,0.1-0.3,0.1c-0.2,0-0.3,0-0.3-0.1V13.9z"/>
	<path class="st8" d="M115.4,16.1v0.5h1.8c0.1,0,0.1,0.1,0.1,0.2c0,0.2,0,0.2-0.1,0.2H113v-0.5h1.8v-0.5c-0.5-0.1-0.9-0.4-0.9-0.9
		c0-0.6,0.5-1,1.2-1s1.2,0.4,1.2,1C116.3,15.7,115.9,16,115.4,16.1z M113.5,14.1v-0.5h1.3v-0.5h0.6v0.5h1.3c0.1,0,0.1,0.1,0.1,0.2
		c0,0.2,0,0.2-0.1,0.2H113.5z M115.1,14.7c-0.4,0-0.6,0.2-0.6,0.5c0,0.3,0.3,0.5,0.6,0.5c0.4,0,0.6-0.2,0.6-0.5
		C115.8,14.9,115.5,14.7,115.1,14.7z"/>
	<path class="st8" d="M119.9,15.6c-0.1,0-0.3-0.1-0.4-0.2c-0.1-0.1-0.2-0.2-0.2-0.3v-1.7h2.3v1.9c0,0.2-0.1,0.3-0.3,0.3H119.9z
		 M121,13.8h-1.2V15c0,0.1,0,0.1,0.2,0.1h1V13.8z M120.6,17.7c-0.1,0-0.3-0.1-0.4-0.2c-0.1-0.1-0.2-0.2-0.2-0.3v-1.1h0.6v1
		c0,0.1,0.1,0.2,0.2,0.2h2.1c0.1,0,0.1,0.1,0.1,0.2c0,0.2,0,0.2-0.1,0.2H120.6z M122.9,16.2c0,0.1-0.1,0.1-0.3,0.1
		c-0.2,0-0.3,0-0.3-0.1v-3.1h0.6V16.2z"/>
	<path class="st8" d="M125.2,14c0-0.1,0-0.1-0.1-0.1h-1.4v-0.5h1.6c0.1,0,0.2,0.1,0.3,0.3c0.1,0.2,0.2,0.3,0.2,0.3
		c0,0.8-0.9,1.5-1.8,1.9c-0.1,0-0.1,0-0.2-0.2c-0.1-0.2-0.1-0.2-0.1-0.2C124.8,15,125.2,14.4,125.2,14z M124.8,17.7
		c-0.1,0-0.3-0.1-0.4-0.2c-0.1-0.1-0.2-0.2-0.2-0.3v-1.1h0.6v1c0,0.1,0.1,0.2,0.2,0.2h2.1c0.1,0,0.1,0.1,0.1,0.2
		c0,0.2,0,0.2-0.1,0.2H124.8z M126.5,13.2h0.6v1.2h0.7v0.5H127v1.4c0,0.1-0.1,0.1-0.3,0.1c-0.2,0-0.3,0-0.3-0.1V13.2z"/>
	<path class="st8" d="M130.1,17.9c-0.7,0-1.2-0.3-1.2-0.9c0-0.5,0.4-0.8,0.9-0.9v-0.4H128v-0.5h4.2c0.1,0,0.1,0.1,0.1,0.2
		c0,0.2,0,0.2-0.1,0.2h-1.8v0.4c0.5,0.1,0.9,0.4,0.9,0.9C131.3,17.6,130.8,17.9,130.1,17.9z M128.6,13.9v-0.5h1.3V13h0.6v0.4h1.2
		c0.1,0,0.1,0.1,0.1,0.2c0,0.2,0,0.2-0.1,0.2h-1.1c0.2,0.4,1,0.6,1.3,0.7c0.1,0,0,0.1,0,0.2c-0.1,0.1-0.1,0.2-0.2,0.2
		c-0.4-0.1-1.2-0.4-1.4-0.8c-0.3,0.4-1,0.7-1.5,0.9c-0.1,0-0.1,0-0.2-0.2c-0.1-0.2-0.1-0.2,0-0.2c0.3-0.1,1-0.4,1.3-0.7H128.6z
		 M130.1,16.5c-0.4,0-0.7,0.2-0.7,0.5c0,0.3,0.3,0.5,0.7,0.5c0.4,0,0.7-0.2,0.7-0.5C130.8,16.7,130.5,16.5,130.1,16.5z"/>
	<path class="st8" d="M133.8,14.6c-0.2,0.5-0.7,0.9-1,1.1c-0.1,0.1-0.1,0-0.3-0.1c-0.1-0.1-0.2-0.2-0.1-0.3c0.5-0.4,1-0.9,1-1.6
		h-0.9v-0.5h2.2c0.1,0,0.1,0.1,0.1,0.2c0,0.2,0,0.2-0.1,0.2h-0.8c0,0.6,0.5,1.1,1,1.5c0.1,0.1,0,0.1-0.1,0.2
		c-0.1,0.1-0.2,0.2-0.2,0.1C134.4,15.5,134,15,133.8,14.6z M134.1,17.7c-0.1,0-0.3-0.1-0.4-0.2c-0.1-0.1-0.2-0.2-0.2-0.3v-1.1h0.6v1
		c0,0.1,0.1,0.2,0.2,0.2h2.1c0.1,0,0.1,0.1,0.1,0.2c0,0.2,0,0.2-0.1,0.2H134.1z M136.3,16.2c0,0.1-0.1,0.1-0.3,0.1
		c-0.2,0-0.3,0-0.3-0.1v-1.6h-0.9v-0.5h0.9v-1h0.6V16.2z"/>
	<path class="st8" d="M138.4,15.1c-0.2,0.5-0.7,1-1.1,1.3c-0.1,0.1-0.1,0-0.3-0.1c-0.1-0.1-0.2-0.2-0.1-0.2c0.6-0.5,1.1-1.2,1.1-1.9
		v-0.6h0.6v0.6c0,0.7,0.6,1.4,1.1,1.9c0.1,0.1,0,0.1-0.1,0.3c-0.1,0.1-0.2,0.2-0.2,0.1C139.1,16.1,138.6,15.6,138.4,15.1z
		 M140.1,13.2h0.6v1.5h0.7v0.5h-0.7v2.2c0,0.1-0.1,0.1-0.3,0.1c-0.2,0-0.3,0-0.3-0.1V13.2z"/>
	<path class="st8" d="M144.8,14.5h-0.9c-0.1,0.6-0.6,0.9-1.2,0.9c-0.7,0-1.2-0.5-1.2-1.1s0.5-1.1,1.2-1.1c0.6,0,1,0.3,1.1,0.8h0.9
		v-0.8h0.6v2.3c0,0.1-0.1,0.1-0.3,0.1s-0.3,0-0.3-0.1V14.5z M142.7,13.7c-0.4,0-0.6,0.3-0.6,0.7s0.3,0.6,0.6,0.6
		c0.4,0,0.6-0.3,0.6-0.6S143.1,13.7,142.7,13.7z M143,17.8c-0.1,0-0.3-0.1-0.4-0.2c-0.1-0.1-0.2-0.2-0.2-0.3v-1.5h0.6v0.5h1.7v-0.5
		h0.6v1.7c0,0.2-0.1,0.3-0.3,0.3H143z M144.7,17.3v-0.5H143v0.4c0,0.1,0,0.1,0.1,0.1H144.7z"/>
	<path class="st8" d="M147.4,15.2c-0.2,0.5-0.6,1-1,1.3c-0.1,0.1-0.1,0-0.3-0.1c-0.1-0.1-0.2-0.2-0.1-0.2c0.6-0.5,1.1-1.1,1.1-1.9
		v-0.2h-1v-0.5h2.4c0.1,0,0.1,0.1,0.1,0.2c0,0.2,0,0.2-0.1,0.2h-0.8v0.2c0,0.7,0.5,1.4,1,1.8c0.1,0.1,0,0.1-0.1,0.3
		c-0.1,0.1-0.2,0.2-0.2,0.1C148,16.1,147.6,15.7,147.4,15.2z M149.1,13.2h0.6v1.5h0.7v0.5h-0.7v2.2c0,0.1-0.1,0.1-0.3,0.1
		c-0.2,0-0.3,0-0.3-0.1V13.2z"/>
</g>
</svg>
